<?xml version="1.0" encoding="utf-8"?>
<!-- Generator: Adobe Illustrator 27.5.0, SVG Export Plug-In . SVG Version: 6.00 Build 0)  -->
<svg version="1.1" id="Layer_1" xmlns="http://www.w3.org/2000/svg" xmlns:xlink="http://www.w3.org/1999/xlink" x="0px" y="0px"
	 viewBox="0 0 4000 4000" style="enable-background:new 0 0 4000 4000;" xml:space="preserve">
<g>
	<g>
		<rect style="fill:#A6A3FF;" width="4000" height="4000"/>
	</g>
	<g>
		<g style="opacity:0.2;">
			<ellipse style="fill:#02025C;" cx="2045.003" cy="3495.554" rx="1040.746" ry="56.976"/>
		</g>
		<g>
			<g>
				<g>
					<path style="fill:#F74C6E;" d="M2410.457,757.013c51.473,141.826-126.658,236.522-225.733,243.491
						C1892.57,1021,1776.26,892.634,1776.26,892.634s-14.461-63.097,15.593-162.133c12.633-41.632,33.082-89.721,65.873-142.114
						c87.987-140.561,232.861-185.235,322.781-148.78c23.24,9.416,42.906,24.275,56.848,44.358
						c66.466,95.429-41.581,208.673-46.175,213.413C2197.162,693.943,2354.845,604.056,2410.457,757.013z"/>
				</g>
				<g style="opacity:0.62;">
					
						<ellipse transform="matrix(0.9704 -0.2415 0.2415 0.9704 -105.903 569.4626)" style="fill:#FFFFFF;" cx="2270.206" cy="716.769" rx="62.225" ry="30.646"/>
				</g>
				<g style="opacity:0.62;">
					<path style="fill:#FFFFFF;" d="M2262.603,551.047c-0.86-1.331-1.72-2.661-2.648-3.968
						c-13.941-20.083-33.608-34.942-56.848-44.358c-10.611-4.273-21.984-7.439-33.937-9.46c-25.044-4.234-49.952,5.995-65.194,26.38
						c-13.558,18.133-39.137,38.274-71.148,54.286c-30.266,15.17-59.852,23.479-81.935,24.301
						c-20.793,0.773-40.095,10.075-52.635,26.992c-6.191,8.353-12.177,17.112-17.933,26.281
						c-32.792,52.393-53.24,100.483-65.873,142.114c-16.265,53.558-19.497,96.595-18.986,124.803
						c-10.072-8.203-14.799-13.478-14.799-13.478s-14.461-63.097,15.593-162.133c12.634-41.632,33.082-89.721,65.873-142.114
						c87.987-140.561,232.86-185.235,322.781-148.78c23.24,9.416,42.907,24.275,56.848,44.358
						C2254.234,514.176,2260.562,532.709,2262.603,551.047z"/>
				</g>
				<g style="opacity:0.2;">
					<path style="fill:#02025C;" d="M2410.457,757.013c51.473,141.826-126.658,236.522-225.733,243.491
						C1892.57,1021,1776.26,892.634,1776.26,892.634s-14.461-63.097,15.593-162.133c66.385,23.401,250.118-11.058,363.08-110.009
						c64.555-56.548,82.423-136.528,82.423-136.528c41.301,29.348,31.271,141.761-46.175,213.413
						c2.855-1.668,40.19-22.949,84.513-28.14c-8.373,1.256-16.825,3.359-25.265,6.357c-53.901,19.148-85.873,67.404-71.397,107.833
						c14.476,40.429,69.89,57.642,123.791,38.494c53.97-19.172,85.942-67.428,71.466-107.857
						c-8.499-23.735-31.076-39.441-59.134-44.527C2352.397,675.206,2389.03,698.027,2410.457,757.013z"/>
				</g>
				<g>
					<path style="fill:#02025C;" d="M2122.144,1020.23c-250.83,0-354.258-110.713-358.867-115.798
						c-2.012-2.219-3.423-4.917-4.092-7.837c-1.26-5.483-29.546-136.421,83.726-317.476
						c76.133-121.699,187.163-167.136,265.683-169.077c61.631-1.614,113.765,21.775,143.125,63.918
						c45.874,65.85,19.927,136.997-8.56,183.767c29.282-7.771,65.342-11.506,99.419,0.696c38.643,13.833,67.007,45,84.302,92.637
						c17.734,48.852,12.095,97.79-16.318,141.521c-46.685,71.863-150.86,120.171-224.6,125.356
						C2163.726,1019.503,2142.427,1020.23,2122.144,1020.23z M1792.481,884.127c20.586,19.251,138.218,116.675,391.03,98.899
						c63.779-4.487,157.5-47.632,197.705-109.512c22.51-34.653,26.806-71.833,12.763-110.51
						c-13.55-37.322-34.771-61.406-63.071-71.584c-58.296-20.952-130.283,20.769-131.001,21.196
						c-7.583,4.453-17.295,2.61-22.686-4.309c-5.405-6.926-4.849-16.78,1.313-23.037c1.025-1.047,103.213-106.975,44.463-191.304
						c-22.519-32.324-63.818-50.078-113.54-48.936c-69.419,1.716-168.106,42.72-236.88,152.654
						C1778.516,748.04,1788.877,860.413,1792.481,884.127z"/>
				</g>
			</g>
			<g>
				<path style="fill:#FFFFFF;" d="M3016.238,2967.354c-187.8,405-575.2,528.25-956.7,528.25h-0.05
					c-381.55,0-768.9-123.25-956.7-528.25c-125.1-269.701-54.95-623.901,5.85-830.5c0.05-0.1,0.05-0.15,0.05-0.2
					c30.5-103.55,58.65-169.95,58.65-169.95c111.55-757.2,346.3-1106.55,892.2-1106.55c504.75,0,780.65,349.351,892.15,1106.55
					C2951.688,1966.704,3204.088,2562.354,3016.238,2967.354z"/>
			</g>
			<g style="opacity:0.2;">
				<path style="fill:#02025C;" d="M3008.338,2967.354c-186.5,402.2-569.85,526.549-948.85,528.199c-1.3,0.05-2.6,0.05-3.9,0.05
					s-2.65,0-3.95-0.05c-379-1.65-762.35-126-948.85-528.199c-125.1-269.701-54.95-623.901,5.85-830.5
					c-97.45,360.449,20.4,783.35,943,785.75h7.85c922.6-2.4,1040.45-425.3,943-785.75
					C3063.288,2343.453,3133.438,2697.654,3008.338,2967.354z"/>
			</g>
			<g>
				<path style="fill:#02025C;" d="M2059.517,3513.851c-330.034,0-766.797-93.481-973.306-538.821
					c-99.107-213.669-76.187-478.711-39.512-663.428c36.924-185.974,94.902-330.371,102.896-349.797
					c58.994-399.124,150.059-667.21,286.514-843.494c73.145-94.497,158.843-162.671,261.992-208.42
					c103.14-45.747,221.362-67.986,361.416-67.986c259.892,0,458.696,90.332,607.778,276.157
					c146.289,182.344,245.117,458.364,302.09,843.743c7.998,19.441,65.972,163.835,102.896,349.797
					c36.675,184.707,59.575,449.763-39.512,663.428l0,0C2826.26,3420.369,2389.527,3513.851,2059.517,3513.851z M2059.517,878.399
					c-513.399,0-758.486,305.879-874.151,1090.967c-0.225,1.533-0.645,3.032-1.25,4.458c-0.625,1.477-63.013,150.044-101.763,345.6
					c-35.503,179.177-57.91,435.701,36.963,640.251c198.408,427.869,620.796,517.681,940.2,517.681
					c319.38,0,741.738-89.812,940.146-517.678v-0.002c94.873-204.551,72.466-461.074,36.963-640.251
					c-38.745-195.557-101.138-344.123-101.763-345.6c-0.605-1.426-1.025-2.927-1.25-4.458
					c-55.952-379.971-152.378-650.964-294.78-828.467C2497.125,964.263,2307.627,878.399,2059.517,878.399z"/>
			</g>
			<g>
				<g>
					<g>
						<path style="fill:#FFFFFF;" d="M2018.388,3321.454c-53.85,77.95-140.85,62.6-140.85,62.6
							c-93.9,133.051-379.55,66.55-512.6-203.45c-87.2-176.951-118.95-397.65-130.4-528.7c-6.1-68.9-6.55-113.051-6.55-113.051
							l528.25,78.251c107.85,127.3,181.45,246,227.4,349.55C2057.838,3133.604,2060.138,3261.104,2018.388,3321.454z"/>
					</g>
					<g>
						<path style="fill:#FFFFFF;" d="M2863.256,2538.855c0,0-3.913,371.739-136.957,641.739s-418.696,336.522-512.609,203.478
							c0,0-87.014,15.317-140.869-62.609c-67.609-97.826-19.565-371.739,262.174-704.348"/>
					</g>
				</g>
				<g>
					<path style="fill:#02025C;" d="M1237.426,2538.755c18.435,187.051,42.783,376.313,110.349,552.522
						c46.178,124.495,121.212,236.412,240.674,300.019c83.301,45.266,210.949,66.26,274.182-17.746
						c4.187-5.805,11.112-8.471,17.738-7.502c1.541,0.356,3.676,0.293,5.971,0.528c40.907,2.192,82.821-14.405,108.276-46.885
						c58.634-73.615,20.788-212.546-8.591-293.625c-53.471-147.224-147.167-275.782-235.494-404.226
						c-2.302-3.406-1.407-8.035,2-10.337c2.974-2.012,6.88-1.582,9.356,0.825c57.286,55.603,107.509,118.342,151.12,185.571
						c82.857,130.026,167.248,297.135,150.213,455.947c-8.348,81.17-72.115,145.292-154.666,149.675
						c-11.555,0.371-22.612,0.539-34.18-1.477c0,0,18.07-7.446,18.07-7.446c-17.703,24.902-42.278,45.408-70.167,57.2
						c-81.672,35.252-176.576,14.664-252.446-25.202c-127.984-67.391-211.36-188.794-258.366-321.432
						c-29.371-76.818-49.891-158.377-65.572-238.842c-19.96-108.04-30.993-217.378-27.375-327.366
						C1219.417,2527.487,1236.103,2526.339,1237.426,2538.755L1237.426,2538.755z"/>
				</g>
				<g>
					<path style="fill:#02025C;" d="M2873.735,2538.965c3.144,178.508-24.383,357.493-80.112,527.112
						c-2.798,11.398-10.07,27.75-14.016,39.025c-4.512,11.691-10.129,27.449-15.256,38.633
						c-56.891,142.269-170.305,271.652-322.598,314.45c-55.914,15.006-118.62,17.545-172.768-6.467
						c-27.883-11.77-52.474-32.234-70.201-57.124l18.07,7.449c-11.574,2.036-22.68,1.871-34.178,1.433
						c-82.446-4.492-146.132-68.494-154.451-149.662c-17.068-158.484,67.478-325.978,150.081-455.862
						c43.65-67.207,93.824-129.921,150.275-186.271c7.32-6.912,18.703,2.282,12.829,10.867
						c-39.666,57.669-96.846,135.886-132.208,195.019c-70.018,114.819-131.923,240.212-142.743,375.427
						c-3.403,52.499,4.761,111.021,48.093,145.025c26.183,21.883,62.519,31.492,96.363,28.026
						c7.059-1.031,13.778,2.097,17.683,7.505c63.184,84.11,190.904,63.189,274.279,17.932
						c112.139-59.369,187.901-165.065,233.449-281.489c32.799-80.479,55.779-165.49,72.957-250.693
						c20.652-105.717,34.766-213.324,43.523-320.901c0.47-5.771,5.53-10.068,11.301-9.6
						C2869.477,2529.238,2873.573,2533.704,2873.735,2538.965L2873.735,2538.965z"/>
				</g>
				<g style="opacity:0.2;">
					<path style="fill:#02025C;" d="M2018.388,3321.454c-53.85,77.95-140.85,62.6-140.85,62.6
						c-93.9,133.051-379.55,66.55-512.6-203.45c-87.2-176.951-118.95-397.65-130.4-528.7c3.45,11.45,250.15,821.749,608.35,642.95
						c0,0,235.65,44.199,140.75-328.201C2057.838,3133.604,2060.138,3261.104,2018.388,3321.454z"/>
				</g>
				<g style="opacity:0.2;">
					<path style="fill:#02025C;" d="M2076.125,3321.454c53.85,77.95,140.85,62.6,140.85,62.6
						c93.9,133.051,379.55,66.55,512.6-203.45c87.2-176.951,118.95-397.65,130.4-528.7c-3.45,11.45-250.15,821.749-608.35,642.95
						c0,0-235.65,44.199-140.75-328.201C2036.675,3133.604,2034.375,3261.104,2076.125,3321.454z"/>
				</g>
			</g>
			<g>
				<g>
					<path style="fill:#6EC7DB;" d="M2643.292,1388.295c-5.943,64.089-66.105,109.002-129.118,95.882
						c-108.83-22.66-281.154-51.424-454.709-51.424c-173.522,0-345.832,28.763-454.658,51.423
						c-63.013,13.121-123.176-31.792-129.119-95.882c-8.04-86.705-10.54-161.271-11.154-211.074
						c-0.507-41.114,22.297-79.161,59.114-97.467c247.595-123.105,503.304-120.048,532.961-119.244c1.903,0.052,3.807,0.052,5.71,0
						c29.66-0.804,285.409-3.862,533.01,119.244c36.818,18.305,59.622,56.353,59.115,97.467
						C2653.831,1227.024,2651.331,1301.589,2643.292,1388.295z"/>
				</g>
				<g style="opacity:0.62;">
					<path style="fill:#FFFFFF;" d="M2654.438,1177.204c-0.15,11.4-0.35,24.15-0.75,38c-4.15-35.649-25.75-67.4-58.35-83.6
						c-247.6-123.15-503.35-120.05-533-119.25c-1.9,0.05-3.85,0.05-5.75,0c-29.65-0.8-285.35-3.9-532.95,119.25
						c-32.6,16.2-54.2,47.95-58.35,83.6c-0.4-13.85-0.6-26.6-0.75-38c-0.5-41.1,22.3-79.15,59.1-97.45
						c247.6-123.1,503.3-120.05,532.95-119.25c1.9,0.05,3.85,0.05,5.75,0c29.65-0.8,285.4-3.85,533,119.25
						C2632.138,1098.054,2654.938,1136.104,2654.438,1177.204z"/>
				</g>
				<g>
					<path style="fill:#02025C;" d="M2535.987,1504.669c-8.516,0-17.065-0.867-25.532-2.629
						c-111.836-23.284-280.865-51.04-450.991-51.04c-170.112,0-339.116,27.756-450.937,51.04
						c-34.961,7.285-71.504-0.73-100.264-21.982c-28.921-21.377-47.417-54.212-50.742-90.078
						c-8.213-88.552-10.64-164.455-11.23-212.534c-0.591-48.064,26.582-92.822,69.233-114.028
						c251.807-125.198,512.7-121.929,541.582-121.145c1.572,0.039,3.15,0.039,4.722,0c28.95-0.779,289.815-4.053,541.631,121.145
						c42.651,21.206,69.824,65.964,69.233,114.028c-0.591,48.081-3.018,123.984-11.231,212.534
						c-3.325,35.869-21.821,68.704-50.747,90.081C2588.926,1496.165,2562.652,1504.669,2535.987,1504.669z M2059.463,1414.505
						c173.233,0,344.912,28.174,458.433,51.807c25.146,5.234,50.425-0.298,71.128-15.598c20.572-15.208,33.731-38.572,36.099-64.104
						l0,0c8.101-87.346,10.493-162.2,11.074-209.614c0.425-34.141-18.809-65.896-48.989-80.903
						c-243.897-121.265-496.392-118.113-524.395-117.341c-2.237,0.063-4.468,0.063-6.695,0
						c-27.954-0.735-280.444-3.926-524.346,117.341c-30.181,15.007-49.414,46.763-48.989,80.903
						c0.581,47.412,2.974,122.266,11.074,209.614c2.368,25.53,15.522,48.894,36.099,64.102c20.703,15.303,45.981,20.845,71.128,15.6
						C1714.585,1442.679,1886.241,1414.505,2059.463,1414.505z"/>
				</g>
				<g>
					<path style="fill:#96ECFF;" d="M2527.289,1307.654c-4.762,39.239-52.97,66.737-103.462,58.704
						c-87.205-13.874-225.288-31.484-364.357-31.484c-139.043,0-277.115,17.61-364.316,31.484
						c-50.492,8.033-98.7-19.465-103.462-58.703c-6.442-53.085-8.445-98.738-8.937-129.23
						c-0.406-25.172,17.866-48.466,47.368-59.674c198.397-75.371,403.296-73.499,427.06-73.007c1.525,0.032,3.051,0.032,4.576,0
						c23.766-0.492,228.697-2.364,427.1,73.007c29.502,11.207,47.774,34.502,47.368,59.674
						C2535.734,1208.917,2533.731,1254.569,2527.289,1307.654z"/>
				</g>
				<g style="opacity:0.2;">
					<path style="fill:#02025C;" d="M2654.438,1177.204c-0.6,49.8-3.1,124.4-11.15,211.1c-5.95,64.1-66.1,109-129.1,95.85
						c-108.85-22.65-281.15-51.4-454.7-51.4c-173.55,0-345.85,28.75-454.7,51.4c-63,13.15-123.15-31.75-129.1-95.85
						c-8.05-86.7-10.55-161.3-11.15-211.1c-0.15-10.45,1.25-20.7,4-30.45c1.65,29.7,4,62.1,7.15,96.4
						c5.95,64.05,66.1,109,129.1,95.85c108.85-22.65,281.15-51.4,454.7-51.4c173.55,0,345.85,28.75,454.7,51.4
						c63,13.15,123.15-31.8,129.1-95.85c3.15-34.301,5.5-66.7,7.15-96.4C2653.188,1156.504,2654.588,1166.754,2654.438,1177.204z"/>
				</g>
			</g>
			<g>
				<g>
					<g>
						<path style="fill:#02025C;" d="M1908.594,2342.027c-13.979,0-28.032-2.173-41.733-6.553
							c-71.768-22.942-111.494-99.973-88.564-171.716c12.637-39.519,42.563-71.018,81.045-85.876l91.196-285.293
							c1.475-4.609,4.722-8.445,9.023-10.662c4.297-2.222,9.312-2.634,13.916-1.162l128.257,41.001
							c9.6,3.069,14.892,13.337,11.826,22.937l-91.196,285.281c22.744,34.385,28.853,77.405,16.206,116.975l0,0
							c-11.108,34.746-35.088,63.093-67.524,79.812C1951.402,2336.9,1930.078,2342.027,1908.594,2342.027z M1979.746,1821.082
							l-88.418,276.604c-1.821,5.696-6.323,10.139-12.041,11.892c-31.484,9.636-56.24,34.045-66.226,65.293
							c-16.807,52.576,12.31,109.028,64.912,125.842c25.474,8.14,52.578,5.876,76.348-6.379
							c23.77-12.253,41.343-33.027,49.482-58.489l0,0c10.005-31.289,3.999-65.527-16.06-91.584
							c-3.652-4.746-4.746-10.981-2.925-16.687l88.423-276.604L1979.746,1821.082z M2021.187,2241.402h0.049H2021.187z"/>
					</g>
					<g>
						<path style="fill:#F74C6E;" d="M1970.893,2225.324c-11.022,34.481-47.915,53.5-82.396,42.478
							c-34.481-11.023-53.501-47.915-42.479-82.396c8.83-27.623,34.291-45.363,61.818-45.592l104.661-327.407l39.149,12.515
							l-104.661,327.407C1969.274,2168.482,1979.723,2197.701,1970.893,2225.324z"/>
					</g>
				</g>
				<g>
					<g>
						<g>
							<path style="fill:#F99639;" d="M2167.616,1881.454h-244.004c-47.637,0-79.642-48.78-60.813-92.538
								c34.016-79.052,103.134-133.137,182.84-133.137c79.71,0,148.798,54.09,182.795,133.148
								C2247.25,1832.684,2215.248,1881.454,2167.616,1881.454z"/>
						</g>
						<g style="opacity:0.2;">
							<path style="fill:#02025C;" d="M2167.633,1881.464h-243.996c-44.931,0-75.926-43.37-63.552-84.996
								c11.713,16.759,31.115,28.172,54.121,28.172h243.996c31.716,0,56.584-21.684,64.032-49.075
								c2.163,4.385,4.265,8.83,6.187,13.335C2247.223,1832.689,2215.267,1881.464,2167.633,1881.464z"/>
						</g>
						<g style="opacity:0.62;">
							<path style="fill:#FFFFFF;" d="M2226.079,1846.324c-17.78-38.924-44.15-71.481-76.166-93.947
								c0.24,1.802,0.06,3.544-0.54,5.166c-4.866,13.335-34.299,14.837-65.655,3.364c-29.253-10.752-49.917-28.953-48.655-42.108
								c-73.463,4.385-136.715,54.841-169.873,127.524c-9.01-16.819-10.872-37.663-2.403-57.425
								c33.998-79.049,103.137-133.11,182.847-133.11c79.71,0,148.789,54.061,182.787,133.11
								C2236.892,1808.661,2235.03,1829.445,2226.079,1846.324z"/>
						</g>
						<g>
							<path style="fill:#02025C;" d="M2167.617,1899.7h-244.004c-28.496,0-54.863-14.211-70.532-38.013
								c-15.698-23.848-18.335-53.747-7.046-79.983c38.271-88.928,114.751-144.172,199.604-144.172
								c84.849,0,161.314,55.249,199.556,144.187c11.284,26.235,8.647,56.135-7.051,79.978
								C2222.471,1885.494,2196.109,1899.7,2167.617,1899.7z M2045.64,1674.027c-70.034,0-133.672,46.787-166.079,122.102
								c-6.519,15.146-5.059,31.729,3.999,45.491c9.033,13.718,23.633,21.587,40.054,21.587h244.004
								c16.421,0,31.016-7.866,40.044-21.58c9.063-13.762,10.522-30.342,4.009-45.491
								C2179.283,1720.816,2115.664,1674.027,2045.64,1674.027z"/>
						</g>
					</g>
				</g>
				<g>
					<path style="fill:#02025C;" d="M1811.038,1684.099c-20.316,49.986-62.556,86.652-109.592,110.633
						c-46.908,22.913-100.733,32.034-152.532,25.463c-8.45-0.909-9.478-13.064-1.317-15.351
						c17.694-4.846,36.845-7.954,54.312-13.062c11.371-2.464,23.258-6.898,34.383-10.014c16.062-5.493,33.695-12.629,49.201-19.756
						c26.338-12.856,51.377-28.803,73.985-47.597c13.84-11.358,27.148-24.644,38.709-38.042
						C1803.536,1669.969,1814.219,1676.361,1811.038,1684.099L1811.038,1684.099z"/>
				</g>
				<g>
					<path style="fill:#02025C;" d="M2276.227,1661.86c49.119,59.089,119.521,98.081,193.789,115.703
						c17.469,4.807,36.738,7.641,54.488,11.792c4.852,1.189,7.821,6.087,6.631,10.938c-0.959,3.914-4.344,6.599-8.158,6.87
						c-12.782,0.889-25.723,1.501-38.674,1.213c-39.212-1.81-78.351-11.018-113.823-27.891
						c-47.389-23.543-90.263-60.09-111.448-109.679C2255.064,1659.898,2269.479,1652.514,2276.227,1661.86L2276.227,1661.86z"/>
				</g>
			</g>
			<g>
				<g>
					<g>
						<path style="fill:#F99639;" d="M1366.454,3435.909c-23.957,11.349-44.002,15.593-61.088,14.293
							c-67.942-4.897-89.801-95.772-126.291-164.828c-20.833-39.506-55.053-62.47-87.701-84.149l-0.082-0.032
							c-19.865-13.24-39.199-26.031-54.514-41.911c-0.025-0.057-0.025-0.057-0.025-0.057c-14.587-14.975-25.48-32.694-29.894-56.119
							c-14.915-79.173,37.296-100.542,75.917-105.686c12.604-1.711,23.718-1.697,30.635-1.362c4.532,0.145,7.244,0.465,7.244,0.465
							c5.564-72.835,68.104-104.958,128.585-81.875c0,0,0,0,0.025,0.057c31.744,12.045,63.017,39.327,85.127,83.837
							C1398.729,3127.917,1458.112,3392.311,1366.454,3435.909z"/>
					</g>
					<g style="opacity:0.62;">
						<path style="fill:#FFFFFF;" d="M1354.561,3043.888c-1.912-4.119-3.856-8.157-5.809-12.056
							c-22.11-44.509-53.384-71.792-85.127-83.836c-0.025-0.057-0.025-0.057-0.025-0.057
							c-60.481-23.083-123.021,9.039-128.585,81.875c0,0-2.712-0.321-7.244-0.465c-6.917-0.335-18.031-0.35-30.635,1.362
							c-38.62,5.145-90.832,26.513-75.917,105.687c0.322,1.69,0.645,3.379,1.081,5.02c-7.236-10.966-12.654-23.529-15.44-38.311
							c-14.915-79.173,37.296-100.542,75.917-105.686c12.604-1.711,23.718-1.697,30.635-1.362c4.532,0.145,7.244,0.465,7.244,0.465
							c5.564-72.835,68.104-104.958,128.585-81.875c0,0,0,0,0.025,0.057c31.744,12.045,63.017,39.327,85.127,83.837
							C1341.193,3012.268,1347.99,3027.555,1354.561,3043.888z"/>
					</g>
					<g>
						<path style="fill:#02025C;" d="M1311.275,3468.748c-11.255,0-21.924-1.877-32.1-5.625
							c-46.875-17.256-70.762-70.508-93.862-122.007c-7.139-15.911-14.517-32.363-22.373-47.268
							c-18.789-35.64-51.074-57.097-82.3-77.849c-39.946-26.545-81.25-53.997-91.704-109.509
							c-7.524-39.939-0.601-71.726,20.566-94.482c27.329-29.377,71.001-34.204,95.386-34.38c9.229-45.5,40.234-77.993,83.931-86.519
							c47.324-9.243,118.154,11.213,161.929,99.297c51.895,104.434,105.024,303.367,69.785,405.252
							c-9.536,27.58-25.107,46.67-46.274,56.728l0,0C1351.275,3463.311,1330.425,3468.748,1311.275,3468.748z M1105.962,3014.117
							c-18.145,0-51.406,2.954-69.81,22.822c-12.783,13.801-16.602,34.929-11.357,62.798c7.607,40.388,39.321,61.465,76.045,85.869
							c33.398,22.197,71.26,47.356,94.385,91.226c8.394,15.93,16.016,32.917,23.384,49.348
							c20.933,46.665,40.708,90.745,73.174,102.698c17.798,6.548,39.653,3.459,66.812-9.451l0,0
							c11.997-5.701,21.23-17.712,27.451-35.696c30.361-87.786-19.136-278.792-67.983-377.085
							c-32.417-65.232-84.78-87.046-122.256-79.719c-32.764,6.394-54.048,32.925-56.938,70.972
							c-0.376,4.944-2.749,9.524-6.572,12.683c-3.823,3.162-8.755,4.624-13.696,4.065
							C1118.448,3014.63,1113.516,3014.117,1105.962,3014.117z"/>
					</g>
					<g>
						<path style="fill:#02025C;" d="M1138.638,2999.712c1.045,37.78,27.385,67.068,53.26,93.298
							c29.669,32.688,61.019,65.988,74.876,109.67c3.054,10.585-11.923,16.678-17.057,6.87
							c-25.361-45.877-69.05-77.445-106.473-114.094c-25.868-26.444-46.242-63.775-40.537-102.133
							C1107.66,2969.732,1142.118,2975.81,1138.638,2999.712L1138.638,2999.712z"/>
					</g>
				</g>
				<g style="opacity:0.2;">
					<path style="fill:#02025C;" d="M1347,3181.18c13.312,92.259,67.524,218.417-41.633,269.021
						c-67.942-4.897-89.801-95.772-126.291-164.828c-20.833-39.506-55.053-62.47-87.701-84.149l-0.082-0.032
						c-19.865-13.24-39.199-26.031-54.514-41.911c-0.025-0.057-0.025-0.057-0.025-0.057c-13.91-47.64,26.279-125.928,102.984-92.708
						c0,0,8.753-56.805,65.255-73.252C1261.519,2976.875,1333.663,3088.865,1347,3181.18z"/>
				</g>
			</g>
			<g>
				<g>
					<g>
						<path style="fill:#F99639;" d="M2705.708,3435.897c23.957,11.349,44.002,15.593,61.087,14.293
							c67.942-4.897,89.801-95.772,126.291-164.827c20.833-39.507,55.053-62.471,87.7-84.149l0.082-0.032
							c19.865-13.24,39.199-26.031,54.514-41.911c0.025-0.057,0.025-0.057,0.025-0.057c14.587-14.975,25.48-32.694,29.895-56.119
							c14.915-79.173-37.296-100.542-75.917-105.686c-12.604-1.711-23.718-1.697-30.636-1.362c-4.532,0.145-7.243,0.465-7.243,0.465
							c-5.564-72.835-68.104-104.958-128.585-81.875c0,0,0,0-0.025,0.057c-31.743,12.045-63.017,39.327-85.127,83.837
							C2673.433,3127.906,2614.05,3392.299,2705.708,3435.897z"/>
					</g>
					<g style="opacity:0.62;">
						<path style="fill:#FFFFFF;" d="M2717.601,3043.877c1.912-4.119,3.857-8.157,5.809-12.056
							c22.11-44.509,53.384-71.792,85.127-83.836c0.025-0.057,0.025-0.057,0.025-0.057c60.481-23.083,123.021,9.039,128.585,81.875
							c0,0,2.712-0.321,7.244-0.465c6.917-0.335,18.032-0.349,30.635,1.362c38.621,5.145,90.832,26.513,75.917,105.687
							c-0.322,1.69-0.645,3.379-1.081,5.02c7.236-10.966,12.654-23.529,15.441-38.311c14.915-79.173-37.296-100.542-75.917-105.686
							c-12.604-1.711-23.718-1.697-30.636-1.362c-4.532,0.145-7.243,0.465-7.243,0.465c-5.564-72.835-68.104-104.958-128.585-81.875
							c0,0,0,0-0.025,0.057c-31.743,12.045-63.017,39.327-85.127,83.837C2730.969,3012.257,2724.172,3027.544,2717.601,3043.877z"/>
					</g>
					<g>
						<path style="fill:#02025C;" d="M2760.889,3468.736c-19.155,0-40-5.437-62.983-16.362
							c-21.167-10.059-36.738-29.145-46.274-56.729c-35.239-101.885,17.891-300.818,69.785-405.251
							c43.769-88.076,114.59-108.555,161.929-99.297c43.696,8.525,74.702,41.018,83.93,86.521c24.385,0.176,68.057,5,95.386,34.38
							c21.167,22.756,28.086,54.543,20.561,94.48c-10.449,55.513-51.753,82.964-91.699,109.509
							c-31.226,20.752-63.511,42.212-82.3,77.852c-7.861,14.907-15.24,31.362-22.378,47.275
							c-23.101,51.497-46.987,104.744-93.858,122C2782.813,3466.859,2772.139,3468.736,2760.889,3468.736z M2862.037,2925.562
							c-35.649,0-79.478,23.801-107.935,81.072c-48.847,98.293-98.345,289.299-67.983,377.085
							c6.221,17.983,15.454,29.995,27.451,35.696l0,0c27.158,12.908,49.009,15.996,66.812,9.451
							c32.461-11.951,52.232-56.025,73.164-102.688c7.373-16.433,14.995-33.425,23.393-49.355
							c23.125-43.87,60.987-69.031,94.385-91.228c36.719-24.404,68.433-45.481,76.04-85.869
							c5.244-27.869,1.426-48.996-11.353-62.795c-26.069-28.137-81.924-22.354-82.485-22.29c-4.922,0.525-9.863-0.933-13.672-4.094
							c-3.804-3.159-6.187-7.725-6.558-12.656c-2.891-38.047-24.175-64.58-56.938-70.974
							C2871.783,2926.021,2866.988,2925.562,2862.037,2925.562z"/>
					</g>
					<g>
						<path style="fill:#02025C;" d="M2969.455,2993.313c7.534,50.507-28.584,94.803-64.739,124.501
							c-29.812,27.931-62.727,55.683-82.131,91.45c-4.874,10.061-20.344,4.216-17.196-6.597
							c13.853-43.678,45.21-76.986,74.875-109.67c23.614-24.126,46.683-48.979,52.344-82.739c0.639-3.255,0.679-7.829,0.917-10.559
							C2930.01,2975.88,2964.496,2969.662,2969.455,2993.313L2969.455,2993.313z"/>
					</g>
				</g>
				<g style="opacity:0.2;">
					<path style="fill:#02025C;" d="M2725.162,3181.169c-13.312,92.259-67.524,218.417,41.633,269.021
						c67.942-4.897,89.801-95.772,126.291-164.827c20.833-39.507,55.053-62.471,87.7-84.149l0.082-0.032
						c19.865-13.24,39.199-26.031,54.514-41.911c0.025-0.057,0.025-0.057,0.025-0.057c13.91-47.64-26.279-125.928-102.984-92.708
						c0,0-8.753-56.805-65.254-73.252C2810.643,2976.864,2738.499,3088.854,2725.162,3181.169z"/>
				</g>
			</g>
		</g>
		<g>
			<path style="fill:#F74C6E;" d="M2059.489,3495.554v0.05h-3.9C2056.888,3495.604,2058.188,3495.604,2059.489,3495.554z"/>
		</g>
		<g>
			<path style="fill:#F74C6E;" d="M2055.588,3495.604h-3.95v-0.05C2052.938,3495.604,2054.288,3495.604,2055.588,3495.604z"/>
		</g>
	</g>
</g>
</svg>
